<svg viewBox="0 0 102 102" fill="none" xmlns="http://www.w3.org/2000/svg">
<path d="M51.3173 95.1357C28.846 87.1679 17.7226 68.3616 12.2079 51.0609C7.28465 35.616 6.94974 21.7045 6.93534 18.6669C15.3822 18.8083 26.4747 15.6409 35.3029 12.543C43.4631 9.67951 50.0566 6.73927 51.5133 6.07186C52.9704 6.7404 59.581 9.69373 67.7527 12.5648C76.583 15.6673 87.6735 18.8358 96.0884 18.6688C96.0566 21.6675 95.6381 35.5944 90.6197 51.0583C85.0056 68.3579 73.785 87.166 51.3173 95.1357Z" fill="white" stroke="#53BFFB" stroke-width="5"/>
<path d="M33.0684 37.1687L42.6232 46.7848V73.9204C42.6232 74.9303 42.9831 75.7975 43.703 76.522C44.4229 77.2464 45.2846 77.6087 46.288 77.6087C47.2915 77.6087 48.1532 77.2464 48.8731 76.522C49.593 75.7975 49.9529 74.9303 49.9529 73.9204V61.2746H52.0471V73.9204C52.0471 74.9303 52.407 75.7975 53.1269 76.522C53.8468 77.2464 54.7085 77.6087 55.712 77.6087C56.7154 77.6087 57.5771 77.2464 58.297 76.522C59.0169 75.7975 59.3768 74.9303 59.3768 73.9204V46.7848L68.9316 37.1687C69.5424 36.554 69.8478 35.8076 69.8478 34.9294C69.8478 34.0512 69.5424 33.3048 68.9316 32.6901C68.3208 32.0753 67.5791 31.768 66.7065 31.768C65.8339 31.768 65.0922 32.0753 64.4814 32.6901L57.0208 40.1985H44.9792L37.5186 32.6901C36.9078 32.0753 36.1661 31.768 35.2935 31.768C34.4209 31.768 33.6792 32.0753 33.0684 32.6901C32.4576 33.3048 32.1522 34.0512 32.1522 34.9294C32.1522 35.8076 32.4576 36.554 33.0684 37.1687ZM43.6703 31.768C43.6703 33.8097 44.3847 35.5496 45.8136 36.9876C47.2424 38.4256 48.9712 39.1446 51 39.1446C53.0288 39.1446 54.7576 38.4256 56.1864 36.9876C57.6153 35.5496 58.3297 33.8097 58.3297 31.768C58.3297 29.7262 57.6153 27.9863 56.1864 26.5483C54.7576 25.1103 53.0288 24.3913 51 24.3913C48.9712 24.3913 47.2424 25.1103 45.8136 26.5483C44.3847 27.9863 43.6703 29.7262 43.6703 31.768Z" fill="url(#paint0_linear_2_8)"/>
<defs>
<linearGradient id="paint0_linear_2_8" x1="51" y1="24.3913" x2="51" y2="77.6087" gradientUnits="userSpaceOnUse">
<stop stop-color="#1E26FF"/>
<stop offset="1" stop-color="#3EB9FE"/>
</linearGradient>
</defs>
</svg>
