<svg viewBox="0 0 670 712" fill="none" xmlns="http://www.w3.org/2000/svg">
<g clip-path="url(#clip0_205_146)">
<path d="M553.5 688.556C538.106 688.556 523.413 688.851 509.961 689.387C509.983 689.278 509.996 689.167 510 689.056C510 684.389 493.97 680.125 467.534 676.871C545.389 672.643 597.578 664.881 597.578 656.003C597.578 642.606 478.753 631.746 332.175 631.746C185.598 631.746 66.7733 642.606 66.7733 656.003C66.7733 658.501 70.9103 660.911 78.5847 663.179C32.8588 664.732 0 669.015 0 674.056C0 680.407 52.1588 685.556 116.5 685.556C137.097 685.556 156.44 685.028 173.229 684.102C169.175 685.679 167 687.34 167 689.056C167 699.273 243.783 707.556 338.5 707.556C377.853 707.556 414.103 706.125 443.044 703.721C458.545 708.275 502.14 711.556 553.5 711.556C617.841 711.556 670 706.407 670 700.056C670 693.705 617.841 688.556 553.5 688.556Z" fill="#3F3D56"/>
<path d="M96.0392 622.111C102.746 646.902 125.716 662.255 125.716 662.255C125.716 662.255 137.814 637.415 131.108 612.625C124.401 587.834 101.43 572.481 101.43 572.481C101.43 572.481 89.3329 597.321 96.0392 622.111Z" fill="#3F3D56"/>
<path d="M105.894 616.784C124.296 634.697 126.544 662.235 126.544 662.235C126.544 662.235 98.9553 660.729 80.553 642.815C62.1507 624.901 59.903 597.363 59.903 597.363C59.903 597.363 87.4913 598.87 105.894 616.784Z" fill="#6C63FF"/>
</g>
<defs>
<clipPath id="clip0_205_146">
<rect width="670" height="711.556" fill="white"/>
</clipPath>
</defs>
</svg>
